# 3ds Max Wavefront OBJ Exporter v0.97b - (c)2007 guruware
# File Created: 17.02.2017 00:39:57

mtllib d20.mtl

#
# object Hedra01
#

v  0.0000 -0.0806 0.4224
v  0.3658 0.0807 0.2112
v  0.0000 0.3418 0.2610
v  0.2261 0.3417 -0.1306
v  -0.2261 0.3417 -0.1306
v  -0.3658 0.0807 0.2112
v  -0.2261 -0.3417 0.1306
v  0.2261 -0.3417 0.1306
v  0.3658 -0.0807 -0.2112
v  0.0000 -0.3418 -0.2610
v  0.0000 0.0806 -0.4224
v  -0.3658 -0.0807 -0.2112
# 12 vertices

vn 0.3568 0.3335 0.8726
vn 0.5774 0.7454 0.3332
vn -0.0000 1.0000 -0.0002
vn -0.5774 0.7454 0.3332
vn -0.3568 0.3335 0.8726
vn -0.5774 -0.3332 0.7454
vn -0.0000 -0.7452 0.6668
vn 0.5774 -0.3332 0.7454
vn 0.9342 0.3333 -0.1274
vn 0.9342 -0.3333 0.1274
vn 0.0000 -1.0000 0.0002
vn 0.5774 -0.7454 -0.3332
vn 0.5774 0.3332 -0.7454
vn 0.3568 -0.3335 -0.8726
vn -0.5774 -0.7454 -0.3332
vn -0.3568 -0.3335 -0.8726
vn 0.0000 0.7452 -0.6668
vn -0.5774 0.3332 -0.7454
vn -0.9342 -0.3333 0.1274
vn -0.9342 0.3333 -0.1274
# 20 vertex normals

vt -0.1008 1.7395 0.5000
vt -0.1965 1.5019 0.3090
vt -0.0060 1.5019 0.5000
vt -0.5010 1.7388 0.0000
vt -0.5949 1.5007 0.5000
vt -0.4061 1.5007 0.3090
vt -0.1952 1.0029 0.5000
vt -0.0056 1.0024 0.5000
vt -0.1007 1.2399 0.3090
vt -0.6049 1.7505 -0.3090
vt -0.6995 1.9910 -0.5000
vt -0.7955 1.7509 0.0000
vt -0.6060 1.2530 0.3090
vt -0.7003 1.4892 0.5000
vt -0.7942 1.2531 0.5000
vt -0.1002 1.4918 0.0000
vt -0.1961 1.2541 -0.5000
vt -0.0060 1.2535 -0.3090
vt -0.7958 1.5010 -0.5000
vt -0.6056 1.5016 -0.5000
vt -0.7002 1.7412 -0.3090
vt -0.6035 1.0015 0.3090
vt -0.6998 1.2437 0.5000
vt -0.7956 1.0022 0.0000
vt -0.8033 1.0012 0.5000
vt -0.8994 1.2417 0.5000
vt -0.9961 1.0013 0.3090
vt -0.5015 1.9911 0.5000
vt -0.5958 1.7508 0.3090
vt -0.4045 1.7505 0.5000
vt -0.8047 1.7539 -0.5000
vt -0.9922 1.7539 -0.3090
vt -0.8995 1.9896 -0.5000
vt -0.2063 1.0018 0.0000
vt -0.3005 1.2417 0.5000
vt -0.3961 1.0021 0.3090
vt -0.9002 1.7411 -0.3090
vt -0.9944 1.5020 -0.5000
vt -0.8036 1.5016 0.0000
vt -0.3967 1.5014 -0.3090
vt -0.2059 1.5010 -0.5000
vt -0.3002 1.7407 -0.5000
vt -0.5948 1.2542 -0.3090
vt -0.5011 1.4938 -0.5000
vt -0.4065 1.2539 0.0000
vt -0.8049 1.2544 -0.3090
vt -0.9002 1.4905 -0.5000
vt -0.9931 1.2544 -0.5000
vt -0.3003 1.4904 0.3090
vt -0.3943 1.2537 0.5000
vt -0.2067 1.2534 0.5000
vt -0.2064 1.7534 0.0000
vt -0.3010 1.9912 -0.5000
vt -0.3952 1.7541 -0.3090
vt -0.0069 1.7530 -0.3090
vt -0.1009 1.9905 -0.5000
vt -0.1947 1.7527 -0.5000
vt -0.5964 1.0018 -0.5000
vt -0.4043 1.0010 -0.3090
vt -0.5019 1.2424 -0.5000
# 60 texture coords

g Hedra01
usemtl 01___Default
s off
f 1/1/1 2/2/1 3/3/1 
f 2/4/2 4/5/2 3/6/2 
f 4/7/3 5/8/3 3/9/3 
f 5/10/4 6/11/4 3/12/4 
f 6/13/5 1/14/5 3/15/5 
f 6/16/6 7/17/6 1/18/6 
f 7/19/7 8/20/7 1/21/7 
f 8/22/8 2/23/8 1/24/8 
f 2/25/9 9/26/9 4/27/9 
f 2/28/10 8/29/10 9/30/10 
f 7/31/11 10/32/11 8/33/11 
f 10/34/12 9/35/12 8/36/12 
f 9/37/13 11/38/13 4/39/13 
f 9/40/14 10/41/14 11/42/14 
f 7/43/15 12/44/15 10/45/15 
f 12/46/16 11/47/16 10/48/16 
f 11/49/17 5/50/17 4/51/17 
f 11/52/18 12/53/18 5/54/18 
f 7/55/19 6/56/19 12/57/19 
f 6/58/20 5/59/20 12/60/20 
# 20 faces

